<svg width="24" height="24" viewBox="0 0 24 24" fill="none" xmlns="http://www.w3.org/2000/svg">
<g id="Icon/Outline/github">
<path id="Mask" fill-rule="evenodd" clip-rule="evenodd" d="M16.2402 22C15.6882 22 15.2402 21.553 15.2402 21V18.401C15.2872 17.738 15.0882 17.161 14.6972 16.742C14.4382 16.466 14.3582 16.068 14.4882 15.714C14.6182 15.359 14.9362 15.108 15.3122 15.065C17.7462 14.783 20.0002 13.947 20.0002 9.77399C20.0002 8.97399 19.7682 8.20299 19.3292 7.54699C18.9282 6.94899 18.7822 6.21999 18.9162 5.49399C19.0042 5.02099 18.9992 4.53999 18.9042 4.07499C18.5002 4.19499 17.8082 4.47999 16.8112 5.17399C16.5662 5.34399 16.2552 5.39499 15.9692 5.31499C14.1652 4.80799 12.2582 4.80799 10.4532 5.31499C10.1662 5.39499 9.85722 5.34399 9.61222 5.17399C8.62522 4.48699 7.93722 4.20099 7.51722 4.08299C7.42322 4.54399 7.41922 5.02099 7.50622 5.49099C7.63922 6.21299 7.48822 6.94999 7.08022 7.56799C6.64622 8.22699 6.41922 8.99699 6.42322 9.79699C6.42322 13.691 8.30222 14.73 11.1232 15.093C11.4952 15.141 11.8092 15.393 11.9372 15.746C12.0642 16.099 11.9832 16.493 11.7272 16.767C11.3402 17.182 11.1412 17.753 11.1802 18.334L11.1812 19.122C11.1832 19.162 11.1832 19.202 11.1812 19.242L11.1822 21C11.1822 21.553 10.7352 22 10.1822 22C9.63022 22 9.18222 21.553 9.18222 21V20.429C6.49722 20.779 4.96722 19.34 3.90622 18.34C3.46622 17.927 3.05222 17.536 2.74922 17.457C2.21422 17.318 1.89322 16.772 2.03222 16.238C2.17122 15.704 2.71722 15.378 3.25122 15.521C4.05022 15.729 4.64622 16.29 5.27722 16.884C6.29922 17.847 7.26922 18.759 9.18222 18.404V18.401C9.14522 17.872 9.22422 17.33 9.40722 16.817C7.35322 16.305 4.42322 14.812 4.42322 9.80199C4.41722 8.60999 4.75922 7.45599 5.41022 6.46699C5.53222 6.28199 5.57822 6.06499 5.53922 5.85399C5.33922 4.77099 5.45422 3.65899 5.87422 2.64299C5.98822 2.36699 6.21922 2.15599 6.50422 2.06799C6.83522 1.96599 8.05522 1.77099 10.3662 3.27099C12.2372 2.82199 14.1862 2.82199 16.0562 3.27099C18.3682 1.77099 19.5872 1.96499 19.9182 2.06799C20.2032 2.15599 20.4342 2.36699 20.5482 2.64299C20.9692 3.66099 21.0842 4.77199 20.8832 5.85799C20.8442 6.06699 20.8832 6.27199 20.9912 6.43499C21.6512 7.42199 22.0002 8.57599 22.0002 9.77399C22.0002 14.838 19.0772 16.313 17.0202 16.807C17.2042 17.336 17.2812 17.905 17.2372 18.478L17.2402 21C17.2402 21.553 16.7922 22 16.2402 22Z" fill="#231F20"/>
<mask id="mask0" mask-type="alpha" maskUnits="userSpaceOnUse" x="1" y="1" width="22" height="21">
<path id="Mask_2" fill-rule="evenodd" clip-rule="evenodd" d="M16.2402 22C15.6882 22 15.2402 21.553 15.2402 21V18.401C15.2872 17.738 15.0882 17.161 14.6972 16.742C14.4382 16.466 14.3582 16.068 14.4882 15.714C14.6182 15.359 14.9362 15.108 15.3122 15.065C17.7462 14.783 20.0002 13.947 20.0002 9.77399C20.0002 8.97399 19.7682 8.20299 19.3292 7.54699C18.9282 6.94899 18.7822 6.21999 18.9162 5.49399C19.0042 5.02099 18.9992 4.53999 18.9042 4.07499C18.5002 4.19499 17.8082 4.47999 16.8112 5.17399C16.5662 5.34399 16.2552 5.39499 15.9692 5.31499C14.1652 4.80799 12.2582 4.80799 10.4532 5.31499C10.1662 5.39499 9.85722 5.34399 9.61222 5.17399C8.62522 4.48699 7.93722 4.20099 7.51722 4.08299C7.42322 4.54399 7.41922 5.02099 7.50622 5.49099C7.63922 6.21299 7.48822 6.94999 7.08022 7.56799C6.64622 8.22699 6.41922 8.99699 6.42322 9.79699C6.42322 13.691 8.30222 14.73 11.1232 15.093C11.4952 15.141 11.8092 15.393 11.9372 15.746C12.0642 16.099 11.9832 16.493 11.7272 16.767C11.3402 17.182 11.1412 17.753 11.1802 18.334L11.1812 19.122C11.1832 19.162 11.1832 19.202 11.1812 19.242L11.1822 21C11.1822 21.553 10.7352 22 10.1822 22C9.63022 22 9.18222 21.553 9.18222 21V20.429C6.49722 20.779 4.96722 19.34 3.90622 18.34C3.46622 17.927 3.05222 17.536 2.74922 17.457C2.21422 17.318 1.89322 16.772 2.03222 16.238C2.17122 15.704 2.71722 15.378 3.25122 15.521C4.05022 15.729 4.64622 16.29 5.27722 16.884C6.29922 17.847 7.26922 18.759 9.18222 18.404V18.401C9.14522 17.872 9.22422 17.33 9.40722 16.817C7.35322 16.305 4.42322 14.812 4.42322 9.80199C4.41722 8.60999 4.75922 7.45599 5.41022 6.46699C5.53222 6.28199 5.57822 6.06499 5.53922 5.85399C5.33922 4.77099 5.45422 3.65899 5.87422 2.64299C5.98822 2.36699 6.21922 2.15599 6.50422 2.06799C6.83522 1.96599 8.05522 1.77099 10.3662 3.27099C12.2372 2.82199 14.1862 2.82199 16.0562 3.27099C18.3682 1.77099 19.5872 1.96499 19.9182 2.06799C20.2032 2.15599 20.4342 2.36699 20.5482 2.64299C20.9692 3.66099 21.0842 4.77199 20.8832 5.85799C20.8442 6.06699 20.8832 6.27199 20.9912 6.43499C21.6512 7.42199 22.0002 8.57599 22.0002 9.77399C22.0002 14.838 19.0772 16.313 17.0202 16.807C17.2042 17.336 17.2812 17.905 17.2372 18.478L17.2402 21C17.2402 21.553 16.7922 22 16.2402 22Z" fill="white"/>
</mask>
<g mask="url(#mask0)">
<g id="&#240;&#159;&#142;&#168; Color">
<rect id="Base" width="24" height="24" fill="#0D1C2E"/>
</g>
</g>
</g>
</svg>
