<svg id="Capa_1" enable-background="new 0 0 512.003 512.003" height="512" viewBox="0 0 512.003 512.003" width="512" xmlns="http://www.w3.org/2000/svg"><g id="XMLID_1192_"><path id="XMLID_1194_" d="m256.975 50.944-36.135 62.588-16.958-29.372c-90.5 67.84-149.006 175.982-149.006 297.922 69.769 0 135.018-19.158 190.789-52.497l-24.825-42.998h83.048c75.581-68.079 123.067-166.731 123.067-276.585-61.263 0-119.042 14.77-169.98 40.942z" fill="#dff6fc"/><path id="XMLID_741_" d="m426.956.002c-61.523 0-120.25 14.146-174.551 42.048-1.709.878-3.129 2.23-4.09 3.895l-27.475 47.588-8.298-14.372c-1.43-2.477-3.852-4.223-6.654-4.797-2.801-.571-5.715.08-8.004 1.795-46.476 34.839-84.979 80.527-111.348 132.124-27.284 53.391-41.283 111.05-41.644 171.411-18.676 38.124-33.58 78.131-44.56 119.754-1.409 5.341 1.779 10.812 7.119 12.22.855.226 1.713.334 2.557.334 4.43 0 8.479-2.967 9.663-7.452 10.334-39.177 24.227-76.796 41.389-112.52 67.019-1.077 132.494-19.643 189.735-53.862 4.69-2.803 6.261-8.852 3.529-13.583l-16.165-27.998h65.728c2.472 0 4.856-.915 6.693-2.569 26.441-23.816 49.413-51.156 68.279-81.26 2.933-4.68 1.517-10.852-3.163-13.784s-10.852-1.518-13.784 3.163c-17.207 27.456-38.017 52.485-61.895 74.45h-79.179c-3.573 0-6.874 1.906-8.66 5-1.787 3.094-1.787 6.906 0 10l19.833 34.352c-49.12 27.559-104.193 43.225-160.729 45.77 54.373-103.326 136.9-189.476 240.681-249.394 4.783-2.762 6.422-8.877 3.66-13.66-2.761-4.783-8.878-6.423-13.66-3.66-75.931 43.839-140.926 101.255-193.179 170.654-14.991 19.91-28.737 40.554-41.234 61.866 11.354-93.895 58.461-178.665 133.393-238.442l11.235 19.46c1.786 3.094 5.087 5 8.66 5s6.874-1.906 8.66-5l34.652-60.021c47.72-24.046 99.013-36.935 152.664-38.374-.963 35.143-6.938 69.689-17.796 102.839-1.719 5.249 1.142 10.897 6.39 12.616 5.249 1.721 10.897-1.142 12.616-6.39 12.561-38.345 18.929-78.45 18.929-119.201.003-5.523-4.474-10-9.997-10z"/><g id="XMLID_1189_"><path id="XMLID_663_" d="m502.003 511.998h-434.499c-5.523 0-10-4.478-10-10s4.477-10 10-10h434.499c5.523 0 10 4.478 10 10s-4.477 10-10 10z"/></g><g id="XMLID_1188_"><path id="XMLID_662_" d="m502.003 457.998h-238.334c-5.523 0-10-4.478-10-10s4.477-10 10-10h238.333c5.523 0 10 4.478 10 10s-4.476 10-9.999 10z"/></g><g id="XMLID_1187_"><path id="XMLID_661_" d="m502.003 403.998h-245.873c-5.523 0-10-4.478-10-10s4.477-10 10-10h245.873c5.523 0 10 4.478 10 10s-4.477 10-10 10z"/></g><g id="XMLID_1183_"><path id="XMLID_660_" d="m207.669 457.998h-102.832c-5.523 0-10-4.478-10-10s4.477-10 10-10h102.832c5.523 0 10 4.478 10 10s-4.477 10-10 10z"/></g><g id="XMLID_1165_"><g id="XMLID_2585_"><path id="XMLID_659_" d="m391.932 177.928c-2.63 0-5.21-1.07-7.07-2.93-1.87-1.86-2.93-4.44-2.93-7.07s1.06-5.21 2.93-7.07c1.86-1.859 4.44-2.93 7.07-2.93s5.21 1.07 7.07 2.93 2.93 4.44 2.93 7.07-1.07 5.21-2.93 7.07c-1.86 1.859-4.439 2.93-7.07 2.93z"/></g></g></g></svg>